<mxfile host="app.diagrams.net" modified="2023-01-15T17:44:29.530Z" agent="5.0 (Windows)" etag="ZSOlOw9freYn1CsBOSL2" version="20.8.5" type="github">
  <diagram id="aOozax90lE9CIAlTON5P" name="Seite-1">
    <mxGraphModel dx="988" dy="897" grid="1" gridSize="10" guides="1" tooltips="1" connect="1" arrows="1" fold="1" page="1" pageScale="1" pageWidth="827" pageHeight="1169" math="0" shadow="0">
      <root>
        <mxCell id="0" />
        <mxCell id="1" parent="0" />
        <mxCell id="9rEcPFsqQncnjPelaJhz-1" value="&lt;span style=&quot;width: 75.7202%;&quot; class=&quot;sapUxAPObjectPageHeaderIdentifierContainer&quot; id=&quot;__xmlview2--idObjectPageHeader-identifierLineContainer&quot;&gt;&lt;h2 class=&quot;sapUxAPObjectPageHeaderIdentifierTitle sapUxAPObjectPageHeaderIdentifierTitleForce&quot; id=&quot;__xmlview2--idObjectPageHeader-title&quot;&gt;&lt;span class=&quot;sapUxAPObjectPageHeaderTitleText sapUxAPObjectPageHeaderTitleTextWrappable&quot; id=&quot;__xmlview2--idObjectPageHeader-innerTitle&quot;&gt;2927704 - International trade data cannot be maintained on delivery item &lt;/span&gt;&lt;span class=&quot;sapUxAPObjectPageHeaderNowrapMarkers&quot;&gt;&lt;span class=&quot;sapUxAPObjectPageHeaderTitleText&quot;&gt;level&lt;/span&gt;&lt;div class=&quot;sapUiHidden&quot; aria-hidden=&quot;false&quot; id=&quot;__xmlview2--idObjectPageHeader-markers-aria&quot;&gt;&lt;/div&gt;&lt;span class=&quot;sapMObjStatusMarker&quot; aria-describedby=&quot;__xmlview2--idObjectPageHeader-markers-aria&quot; id=&quot;__xmlview2--idObjectPageHeader-markers&quot;&gt;&lt;span style=&quot;font-family: &#39;SAP\2dicons&#39;;&quot; class=&quot;sapUiIcon sapUiIconMirrorInRTL&quot; title=&quot;Favorite&quot; data-sap-ui-icon-content=&quot;&quot; aria-hidden=&quot;true&quot; role=&quot;presentation&quot; data-sap-ui=&quot;__xmlview2--idObjectPageHeader-favorite&quot; id=&quot;__xmlview2--idObjectPageHeader-favorite&quot;&gt;&lt;/span&gt;&lt;/span&gt;&lt;/span&gt;&lt;/h2&gt;&lt;/span&gt;" style="text;whiteSpace=wrap;html=1;" vertex="1" parent="1">
          <mxGeometry x="170" y="330" width="560" height="100" as="geometry" />
        </mxCell>
        <mxCell id="9rEcPFsqQncnjPelaJhz-2" value="2927704" style="shape=mxgraph.bpmn.data;labelPosition=center;verticalLabelPosition=bottom;align=center;verticalAlign=top;whiteSpace=wrap;size=15;html=1;" vertex="1" parent="1">
          <mxGeometry x="530" y="870" width="40" height="60" as="geometry" />
        </mxCell>
        <mxCell id="9rEcPFsqQncnjPelaJhz-7" value="&lt;h1 style=&quot;&quot;&gt;2927704 &lt;br&gt;&lt;font style=&quot;font-size: 12px;&quot;&gt;&lt;span style=&quot;font-weight: normal;&quot;&gt;23.11.2020 - 24.11.2022: &lt;/span&gt;&lt;/font&gt;&lt;font style=&quot;font-size: 12px;&quot;&gt;&lt;span style=&quot;font-weight: normal;&quot;&gt;&lt;font style=&quot;font-size: 12px;&quot;&gt;International trade data cannot be maintained on delivery item level&lt;/font&gt;&lt;/span&gt;&lt;/font&gt;&lt;/h1&gt;&lt;div&gt;&lt;b&gt;&lt;br&gt;&lt;/b&gt;&lt;/div&gt;&lt;div&gt;&lt;b&gt;&lt;br&gt;&lt;/b&gt;&lt;/div&gt;&lt;p&gt;Adds: LIPS CoO, RoO, CoC&lt;br&gt;&lt;/p&gt;" style="text;html=1;strokeColor=none;fillColor=none;spacing=5;spacingTop=-20;whiteSpace=wrap;overflow=hidden;rounded=0;" vertex="1" parent="1">
          <mxGeometry x="590" y="870" width="560" height="80" as="geometry" />
        </mxCell>
        <mxCell id="9rEcPFsqQncnjPelaJhz-18" value="Refers to" style="edgeStyle=orthogonalEdgeStyle;rounded=0;orthogonalLoop=1;jettySize=auto;html=1;" edge="1" parent="1" source="9rEcPFsqQncnjPelaJhz-8" target="9rEcPFsqQncnjPelaJhz-17">
          <mxGeometry x="-0.1766" relative="1" as="geometry">
            <Array as="points">
              <mxPoint x="420" y="770" />
            </Array>
            <mxPoint as="offset" />
          </mxGeometry>
        </mxCell>
        <mxCell id="9rEcPFsqQncnjPelaJhz-8" value="2987725" style="shape=mxgraph.bpmn.data;labelPosition=center;verticalLabelPosition=bottom;align=center;verticalAlign=top;whiteSpace=wrap;size=15;html=1;" vertex="1" parent="1">
          <mxGeometry x="400" y="600" width="40" height="60" as="geometry" />
        </mxCell>
        <mxCell id="9rEcPFsqQncnjPelaJhz-15" value="&lt;h1&gt;2987725&lt;br&gt;&lt;/h1&gt;&lt;p&gt;06.11.2020 Title: Foreign Trade fields ITM_COMCO, SPE_HERKL, SPE_HERKR&lt;br&gt;&lt;/p&gt;" style="text;html=1;strokeColor=none;fillColor=none;spacing=5;spacingTop=-20;whiteSpace=wrap;overflow=hidden;rounded=0;" vertex="1" parent="1">
          <mxGeometry x="460" y="600" width="580" height="100" as="geometry" />
        </mxCell>
        <mxCell id="9rEcPFsqQncnjPelaJhz-17" value="2954883 " style="shape=mxgraph.bpmn.data;labelPosition=center;verticalLabelPosition=bottom;align=center;verticalAlign=top;whiteSpace=wrap;size=15;html=1;" vertex="1" parent="1">
          <mxGeometry x="480" y="740" width="40" height="60" as="geometry" />
        </mxCell>
        <mxCell id="9rEcPFsqQncnjPelaJhz-20" value="&lt;h1&gt;2954883&lt;br&gt;&lt;/h1&gt;&lt;p&gt;06.11.2020 Line-Items Foreign Trade in Billing Documents&lt;/p&gt;" style="text;html=1;strokeColor=none;fillColor=none;spacing=5;spacingTop=-20;whiteSpace=wrap;overflow=hidden;rounded=0;" vertex="1" parent="1">
          <mxGeometry x="530" y="735" width="390" height="70" as="geometry" />
        </mxCell>
        <mxCell id="9rEcPFsqQncnjPelaJhz-23" value="Requires" style="endArrow=classic;html=1;rounded=0;fontSize=12;exitX=0.5;exitY=1;exitDx=0;exitDy=0;exitPerimeter=0;entryX=0;entryY=0.5;entryDx=0;entryDy=0;entryPerimeter=0;" edge="1" parent="1" source="9rEcPFsqQncnjPelaJhz-17" target="9rEcPFsqQncnjPelaJhz-2">
          <mxGeometry width="50" height="50" relative="1" as="geometry">
            <mxPoint x="790" y="640" as="sourcePoint" />
            <mxPoint x="840" y="590" as="targetPoint" />
            <Array as="points">
              <mxPoint x="500" y="900" />
            </Array>
          </mxGeometry>
        </mxCell>
      </root>
    </mxGraphModel>
  </diagram>
</mxfile>
